<svg xmlns="http://www.w3.org/2000/svg" viewBox="204 0 486 250" width="486" height="250" font-family="Archivo, system-ui, sans-serif">
<g transform="translate(137,-54) scale(0.315)"><path d="M863 270 L860 287 L854 302 L844 320 L831 337 L802 363 L768 382 L741 391 L698 397 L654 396 L613 388 L610 389 L658 411 L695 424 L743 433 L780 432 L808 426 L838 413 L865 393 L858 410 L837 433 L823 443 L791 457 L764 463 L731 464 L704 461 L675 454 L636 438 L565 394 L532 377 L508 368 L469 361 L429 363 L404 369 L389 375 L355 395 L324 425 L318 433 L319 435 L347 418 L366 411 L387 407 L412 407 L438 412 L452 417 L484 435 L504 452 L527 480 L536 488 L544 488 L557 478 L574 472 L589 472 L604 477 L621 491 L630 509 L634 513 L644 515 L651 519 L662 532 L662 534 L660 534 L649 531 L636 531 L619 535 L604 548 L583 572 L554 593 L530 604 L505 611 L482 614 L451 614 L400 645 L404 651 L461 701 L468 704 L488 707 L492 711 L492 715 L487 719 L413 719 L409 713 L413 706 L418 704 L431 704 L436 700 L390 657 L372 649 L366 642 L366 632 L369 626 L399 599 L362 580 L308 540 L283 526 L262 520 L247 520 L228 525 L237 509 L256 486 L293 453 L309 417 L330 388 L353 366 L382 346 L416 331 L439 325 L462 322 L497 322 L520 325 L610 349 L658 357 L711 357 L747 351 L780 340 L815 320 L840 298 L862 271Z" fill="#EFA21F" fill-rule="evenodd"></path><circle cx="586" cy="512" r="15" fill="#1C1B17"></circle></g>
<text x="470" y="172" text-anchor="middle" font-size="120" font-weight="800" letter-spacing="-5" fill="#F7F1E7">Lifer</text>
<text x="470" y="205" text-anchor="middle" font-size="20.5" font-weight="700" letter-spacing="3.8" fill="#EFA21F">CAPTURE <tspan font-size="13" baseline-shift="2">·</tspan> COLLECT <tspan font-size="13" baseline-shift="2">·</tspan> COMPETE</text>
</svg>